# xmcd
#
# Track frame offsets: 
#        150
#        17604
#        39849
#        61833
#        75711
#        94137
#        115527
#        133173
#
# Disc length: 1965 seconds
#
# Revision: 0
# Processed by: cddbd v1.5.2PL0 Copyright (c) Steve Scherf et al.
# Submitted via: ExactAudioCopy v1.3
#
DISCID=5707ab08
DTITLE=Darren Watson - Too Many Millionaires
DYEAR=2018
DGENRE=Blues
TTITLE0=Hallelujah (Rich Man's War)
TTITLE1=National Guy
TTITLE2=Mean Me Right Blues
TTITLE3=Pilgrim
TTITLE4=Too Many Millionaires
TTITLE5=Un-Love Me
TTITLE6=That Guy Could Sing!
TTITLE7=Past Tense
EXTD=
EXTT0=
EXTT1=
EXTT2=
EXTT3=
EXTT4=
EXTT5=
EXTT6=
EXTT7=
PLAYORDER=
